<mxfile host="app.diagrams.net" agent="Mozilla/5.0 (Windows NT 10.0; Win64; x64) AppleWebKit/537.36 (KHTML, like Gecko) Chrome/127.0.0.0 Safari/537.36 Edg/127.0.0.0" version="24.7.7">
  <diagram name="Page-1" id="NTci2zjAOPUxK90D50eq">
    <mxGraphModel dx="1817" dy="1212" grid="1" gridSize="10" guides="1" tooltips="1" connect="1" arrows="1" fold="1" page="1" pageScale="1" pageWidth="850" pageHeight="1100" math="0" shadow="0">
      <root>
        <mxCell id="0" />
        <mxCell id="1" parent="0" />
        <mxCell id="WwSMeB14amw_9LTCPX0T-28" value="" style="edgeStyle=orthogonalEdgeStyle;rounded=0;orthogonalLoop=1;jettySize=auto;html=1;" edge="1" parent="1" source="UZjuZ-FUdFmY1X8hekNM-1" target="WwSMeB14amw_9LTCPX0T-10">
          <mxGeometry relative="1" as="geometry" />
        </mxCell>
        <mxCell id="UZjuZ-FUdFmY1X8hekNM-1" value="1" style="verticalLabelPosition=bottom;shadow=0;dashed=0;align=center;html=1;verticalAlign=top;strokeWidth=1;shape=mxgraph.mockup.misc.map;rounded=1;" parent="1" vertex="1">
          <mxGeometry x="279" y="210" width="400" height="710" as="geometry" />
        </mxCell>
        <mxCell id="UZjuZ-FUdFmY1X8hekNM-2" value="" style="rounded=1;whiteSpace=wrap;html=1;" parent="1" vertex="1">
          <mxGeometry x="292" y="220" width="335" height="30" as="geometry" />
        </mxCell>
        <mxCell id="UZjuZ-FUdFmY1X8hekNM-9" value="" style="shape=image;html=1;verticalAlign=top;verticalLabelPosition=bottom;labelBackgroundColor=#ffffff;imageAspect=0;aspect=fixed;image=https://cdn4.iconfinder.com/data/icons/evil-icons-user-interface/64/menu-128.png;rounded=1;" parent="1" vertex="1">
          <mxGeometry x="637" y="219.29999999999998" width="32.6" height="32.6" as="geometry" />
        </mxCell>
        <mxCell id="UZjuZ-FUdFmY1X8hekNM-10" value="" style="shape=mxgraph.signs.tech.camera_2;html=1;pointerEvents=1;fillColor=#000000;strokeColor=none;verticalLabelPosition=bottom;verticalAlign=top;align=center;rounded=1;" parent="1" vertex="1">
          <mxGeometry x="589.37" y="223.7" width="29.29" height="21.3" as="geometry" />
        </mxCell>
        <mxCell id="UZjuZ-FUdFmY1X8hekNM-13" value="" style="shape=image;html=1;verticalAlign=top;verticalLabelPosition=bottom;labelBackgroundColor=#ffffff;imageAspect=0;aspect=fixed;image=https://cdn2.iconfinder.com/data/icons/boxicons-solid-vol-1/24/bxs-cat-128.png;rounded=1;" parent="1" vertex="1">
          <mxGeometry x="296" y="220.3" width="30" height="30" as="geometry" />
        </mxCell>
        <mxCell id="WwSMeB14amw_9LTCPX0T-7" value="" style="shape=mxgraph.signs.transportation.car_1;html=1;pointerEvents=1;fillColor=#FCFCFC;strokeColor=none;verticalLabelPosition=bottom;verticalAlign=top;align=center;sketch=0;" vertex="1" parent="1">
          <mxGeometry x="547" y="863.5" width="28.13" height="25" as="geometry" />
        </mxCell>
        <mxCell id="WwSMeB14amw_9LTCPX0T-10" value="" style="verticalLabelPosition=bottom;shadow=0;dashed=0;align=center;html=1;verticalAlign=top;strokeWidth=1;shape=mxgraph.mockup.misc.map;rounded=1;" vertex="1" parent="1">
          <mxGeometry x="728" y="210" width="400" height="710" as="geometry" />
        </mxCell>
        <mxCell id="WwSMeB14amw_9LTCPX0T-11" value="" style="rounded=1;whiteSpace=wrap;html=1;" vertex="1" parent="1">
          <mxGeometry x="751" y="220" width="335" height="30" as="geometry" />
        </mxCell>
        <mxCell id="WwSMeB14amw_9LTCPX0T-12" value="" style="shape=image;html=1;verticalAlign=top;verticalLabelPosition=bottom;labelBackgroundColor=#ffffff;imageAspect=0;aspect=fixed;image=https://cdn4.iconfinder.com/data/icons/evil-icons-user-interface/64/menu-128.png;rounded=1;" vertex="1" parent="1">
          <mxGeometry x="1096" y="219.29999999999998" width="32.6" height="32.6" as="geometry" />
        </mxCell>
        <mxCell id="WwSMeB14amw_9LTCPX0T-13" value="" style="shape=mxgraph.signs.tech.camera_2;html=1;pointerEvents=1;fillColor=#000000;strokeColor=none;verticalLabelPosition=bottom;verticalAlign=top;align=center;rounded=1;" vertex="1" parent="1">
          <mxGeometry x="1048.37" y="223.7" width="29.29" height="21.3" as="geometry" />
        </mxCell>
        <mxCell id="WwSMeB14amw_9LTCPX0T-14" value="" style="shape=image;html=1;verticalAlign=top;verticalLabelPosition=bottom;labelBackgroundColor=#ffffff;imageAspect=0;aspect=fixed;image=https://cdn2.iconfinder.com/data/icons/boxicons-solid-vol-1/24/bxs-cat-128.png;rounded=1;" vertex="1" parent="1">
          <mxGeometry x="755" y="220.3" width="30" height="30" as="geometry" />
        </mxCell>
        <mxCell id="WwSMeB14amw_9LTCPX0T-15" value="" style="shape=mxgraph.signs.transportation.car_1;html=1;pointerEvents=1;fillColor=#FCFCFC;strokeColor=none;verticalLabelPosition=bottom;verticalAlign=top;align=center;sketch=0;" vertex="1" parent="1">
          <mxGeometry x="1006" y="863.5" width="28.13" height="25" as="geometry" />
        </mxCell>
        <mxCell id="WwSMeB14amw_9LTCPX0T-16" value="" style="group" vertex="1" connectable="0" parent="1">
          <mxGeometry x="738" y="840" width="380" height="60" as="geometry" />
        </mxCell>
        <mxCell id="WwSMeB14amw_9LTCPX0T-17" value="" style="rounded=1;whiteSpace=wrap;html=1;textOpacity=70;" vertex="1" parent="WwSMeB14amw_9LTCPX0T-16">
          <mxGeometry width="380" height="60" as="geometry" />
        </mxCell>
        <mxCell id="WwSMeB14amw_9LTCPX0T-18" value="&lt;b&gt;&lt;font style=&quot;font-size: 13px;&quot;&gt;&amp;nbsp; &amp;nbsp; &amp;nbsp; &amp;nbsp; 到这里&lt;/font&gt;&lt;/b&gt;" style="rounded=1;fillColor=#0057D8;align=center;strokeColor=none;html=1;whiteSpace=wrap;fontColor=#ffffff;fontSize=12;shadow=0;glass=0;" vertex="1" parent="WwSMeB14amw_9LTCPX0T-16">
          <mxGeometry x="244" y="10" width="120" height="40" as="geometry" />
        </mxCell>
        <mxCell id="WwSMeB14amw_9LTCPX0T-19" value="人民广场" style="text;html=1;align=center;verticalAlign=middle;whiteSpace=wrap;rounded=0;dashed=1;strokeColor=#0000CC;strokeWidth=1;" vertex="1" parent="WwSMeB14amw_9LTCPX0T-16">
          <mxGeometry x="20" y="15" width="210" height="30" as="geometry" />
        </mxCell>
        <mxCell id="WwSMeB14amw_9LTCPX0T-2" value="" style="rounded=1;whiteSpace=wrap;html=1;textOpacity=70;movable=1;resizable=1;rotatable=1;deletable=1;editable=1;locked=0;connectable=1;strokeOpacity=100;fillOpacity=100;perimeter=none;labelBorderColor=none;" vertex="1" parent="1">
          <mxGeometry x="289" y="760" width="380" height="150" as="geometry" />
        </mxCell>
        <mxCell id="WwSMeB14amw_9LTCPX0T-32" value="" style="group" vertex="1" connectable="0" parent="1">
          <mxGeometry x="297" y="770" width="364" height="40" as="geometry" />
        </mxCell>
        <mxCell id="WwSMeB14amw_9LTCPX0T-29" value="人民公园" style="text;html=1;align=center;verticalAlign=middle;whiteSpace=wrap;rounded=0;dashed=1;strokeColor=none;strokeWidth=1;spacingBottom=1;spacing=1;fontSize=17;" vertex="1" parent="WwSMeB14amw_9LTCPX0T-32">
          <mxGeometry width="364" height="40" as="geometry" />
        </mxCell>
        <mxCell id="WwSMeB14amw_9LTCPX0T-30" value="" style="endArrow=none;html=1;rounded=0;entryX=1;entryY=1;entryDx=0;entryDy=0;exitX=0;exitY=1;exitDx=0;exitDy=0;dashed=1;strokeColor=#ae9e9e;" edge="1" parent="WwSMeB14amw_9LTCPX0T-32" source="WwSMeB14amw_9LTCPX0T-29" target="WwSMeB14amw_9LTCPX0T-29">
          <mxGeometry width="50" height="50" relative="1" as="geometry">
            <mxPoint x="13" y="100" as="sourcePoint" />
            <mxPoint x="63" y="50" as="targetPoint" />
          </mxGeometry>
        </mxCell>
        <mxCell id="WwSMeB14amw_9LTCPX0T-34" value="滨江公园" style="text;html=1;align=center;verticalAlign=middle;whiteSpace=wrap;rounded=0;dashed=1;strokeColor=none;strokeWidth=1;spacingBottom=1;spacing=1;fontSize=17;" vertex="1" parent="1">
          <mxGeometry x="296" y="810" width="364" height="40" as="geometry" />
        </mxCell>
        <mxCell id="WwSMeB14amw_9LTCPX0T-35" value="" style="endArrow=none;html=1;rounded=0;entryX=1;entryY=1;entryDx=0;entryDy=0;exitX=0;exitY=1;exitDx=0;exitDy=0;dashed=1;strokeColor=#ae9e9e;" edge="1" parent="1" source="WwSMeB14amw_9LTCPX0T-34" target="WwSMeB14amw_9LTCPX0T-34">
          <mxGeometry width="50" height="50" relative="1" as="geometry">
            <mxPoint x="320" y="740" as="sourcePoint" />
            <mxPoint x="370" y="690" as="targetPoint" />
          </mxGeometry>
        </mxCell>
        <mxCell id="WwSMeB14amw_9LTCPX0T-36" value="" style="group" vertex="1" connectable="0" parent="1">
          <mxGeometry x="295" y="850" width="364" height="40" as="geometry" />
        </mxCell>
        <mxCell id="WwSMeB14amw_9LTCPX0T-37" value="共青森林公园" style="text;html=1;align=center;verticalAlign=middle;whiteSpace=wrap;rounded=0;dashed=1;strokeColor=none;strokeWidth=1;spacingBottom=1;spacing=1;fontSize=17;" vertex="1" parent="WwSMeB14amw_9LTCPX0T-36">
          <mxGeometry width="364" height="40" as="geometry" />
        </mxCell>
        <mxCell id="WwSMeB14amw_9LTCPX0T-38" value="" style="endArrow=none;html=1;rounded=0;entryX=1;entryY=1;entryDx=0;entryDy=0;exitX=0;exitY=1;exitDx=0;exitDy=0;dashed=1;strokeColor=#ae9e9e;" edge="1" parent="WwSMeB14amw_9LTCPX0T-36" source="WwSMeB14amw_9LTCPX0T-37" target="WwSMeB14amw_9LTCPX0T-37">
          <mxGeometry width="50" height="50" relative="1" as="geometry">
            <mxPoint x="13" y="100" as="sourcePoint" />
            <mxPoint x="63" y="50" as="targetPoint" />
          </mxGeometry>
        </mxCell>
      </root>
    </mxGraphModel>
  </diagram>
</mxfile>
